<?xml version="1.0" encoding="UTF-8" standalone="no" ?>
<!DOCTYPE svg PUBLIC "-//W3C//DTD SVG 1.1//EN" "http://www.w3.org/Graphics/SVG/1.1/DTD/svg11.dtd">
<svg xmlns="http://www.w3.org/2000/svg" xmlns:xlink="http://www.w3.org/1999/xlink" version="1.1" width="1080" height="1080" viewBox="0 0 1080 1080" xml:space="preserve">
<desc>Created with Fabric.js 5.2.4</desc>
<defs>
</defs>
<rect x="0" y="0" width="100%" height="100%" fill="transparent"></rect>
<g transform="matrix(1 0 0 1 540 540)" id="cabc7754-bccf-4901-8c26-daf1556577b3"  >
<rect style="stroke: none; stroke-width: 1; stroke-dasharray: none; stroke-linecap: butt; stroke-dashoffset: 0; stroke-linejoin: miter; stroke-miterlimit: 4; fill: rgb(255,255,255); fill-rule: nonzero; opacity: 1; visibility: hidden;" vector-effect="non-scaling-stroke"  x="-540" y="-540" rx="0" ry="0" width="1080" height="1080" />
</g>
<g transform="matrix(1 0 0 1 540 540)" id="7fe8958a-5e4b-4eb4-96c0-b1697b156d6e"  >
</g>
<g transform="matrix(1 0 0 1 540 540)"  >
<path style="stroke: none; stroke-width: 1; stroke-dasharray: none; stroke-linecap: butt; stroke-dashoffset: 0; stroke-linejoin: miter; stroke-miterlimit: 4; fill: rgb(157,94,46); fill-opacity: 0; fill-rule: nonzero; opacity: 1;" vector-effect="non-scaling-stroke"  transform=" translate(-467.05, -414.46)" d="M 466 0.999999 C 621.648071 1 777.296143 1 932.972107 1 C 932.972107 276.615143 932.972107 552.230286 932.972107 827.922729 C 622.421997 827.922729 311.843933 827.922729 1.132945 827.922729 C 1.132945 552.454956 1.132945 276.909821 1.132945 1 C 144.36116 1 287.722626 1 431.379333 1.402627 C 421.618256 2.933311 411.453827 3.470107 401.523438 5.286438 C 341.943054 16.184069 290.080536 42.465546 247.848969 85.971779 C 177.796707 158.138397 149.425491 244.925644 161.998566 344.429535 C 171.435287 419.112183 204.512482 482.544617 261.547943 531.75293 C 340.114014 599.53717 430.834808 620.740356 530.66333 591.729736 C 619.023499 566.051941 679.825073 507.436157 716.980103 423.78064 C 718.317444 420.769562 719.157959 418.571594 723.55304 419.144104 C 751.598389 422.797241 778.169434 417.997864 802.906921 404.06485 C 862.871216 370.290802 880.752197 295.574738 841.116333 240.498001 C 813.299866 201.845139 774.187805 185.794434 727.074219 188.765915 C 722.063354 189.081955 719.772217 188.224701 717.712524 183.239227 C 700.501343 141.578964 675.213135 105.379333 641.685547 75.287872 C 595.870422 34.168129 542.410339 9.522056 480.931946 2.931908 C 475.942932 2.397112 470.976776 1.648992 466 0.999999 M 708.487915 652.996338 C 697.413696 652.996338 686.339417 652.996338 675.398132 652.996338 C 675.398132 694.394836 675.398132 734.998657 675.398132 776.003662 C 686.927612 776.003662 698.223083 776.103882 709.515747 775.967896 C 716.8302 775.879822 724.198425 775.928406 731.439087 775.056641 C 742.69281 773.701599 748.821411 767.451233 748.975159 756.255432 C 749.343262 729.462158 749.304138 702.656921 748.943787 675.863098 C 748.809814 665.905884 743.340576 658.528992 733.604553 656.093994 C 725.793884 654.140625 717.539307 653.962402 708.487915 652.996338 M 529.693481 716.841248 C 525.9646 714.595764 522.235657 712.350342 518.723999 710.235657 C 531.21521 704.804688 533.467957 701.187866 532.994812 686.828186 C 532.945557 685.332458 532.915955 683.834534 532.809143 682.342468 C 531.627808 665.837158 525.096375 655.906555 511.644043 654.515076 C 494.713867 652.763733 477.573792 653.041443 460.418884 652.439941 C 460.418884 694.25061 460.418884 734.947266 460.418884 776.486145 C 480.113312 775.976868 499.546143 775.761902 518.945251 774.838745 C 527.343628 774.439148 532.983093 769.156982 533.826782 760.619995 C 534.868469 750.079163 534.944458 739.385681 534.553711 728.79071 C 534.41156 724.934326 531.728516 721.171631 529.693481 716.841248 M 95.055672 672.834167 C 94.710823 674.964905 94.072205 677.094849 94.066185 679.226562 C 93.999512 702.832642 93.595024 726.450439 94.212463 750.040649 C 94.540672 762.580322 101.554672 771.541504 113.443275 776.079712 C 124.406754 780.264709 135.638626 780.360291 146.664398 776.533447 C 158.580521 772.397583 166.379883 763.763672 166.776215 751.180359 C 167.545395 726.758789 167.140503 702.294495 166.908875 677.850891 C 166.847382 671.360352 163.935349 665.589233 159.439392 660.858093 C 148.769669 649.630249 135.219147 648.640869 121.098976 650.764832 C 108.405151 652.674255 99.521751 659.682434 95.055672 672.834167 M 587.995239 762.492188 C 587.995239 766.92804 587.995239 771.363892 587.995239 775.719238 C 598.307922 775.719238 608.047974 775.719238 617.875549 775.719238 C 617.875549 760.292786 617.993286 745.150085 617.826843 730.010559 C 617.740906 722.195618 613.614929 716.930359 606.401428 714.033081 C 605.319702 713.598694 604.269592 713.085388 602.794983 712.424988 C 613.989746 709.372864 616.84845 706.702515 617.617554 695.962158 C 618.160156 688.384766 617.919067 680.592712 616.768372 673.089661 C 615.031433 661.763855 607.047119 654.714722 595.610535 654.081909 C 582.153198 653.337219 568.655701 653.312622 555.174866 653.005066 C 552.243225 652.938171 549.308777 652.995239 546.499756 652.995239 C 546.499756 694.379333 546.499756 735.107361 546.499756 775.750244 C 557.279297 775.750244 567.713501 775.750244 578.731079 775.750244 C 578.731079 757.441467 578.731079 739.380249 578.731079 721.310242 C 586.180359 721.608765 587.597229 722.654236 587.7995 729.504883 C 588.114014 740.161011 587.954041 750.831116 587.995239 762.492188 M 825.466858 709.994934 C 816.226624 709.994934 806.986389 709.994934 797.840271 709.994934 C 797.840271 716.387085 797.840271 722.101624 797.840271 727.861267 C 799.962646 727.987244 801.733154 728.092346 803.105347 728.173767 C 803.105347 736.461121 803.220825 744.405579 803.048096 752.343872 C 802.979736 755.488342 801.319824 757.830383 797.795776 757.782959 C 794.042847 757.732605 793.381958 754.88916 793.021362 751.931824 C 792.960938 751.436401 792.910095 750.935852 792.910156 750.437683 C 792.915222 726.292297 792.900574 702.14679 792.967346 678.001526 C 792.976318 674.765991 793.301331 671.328247 797.731995 671.216187 C 802.027527 671.107544 802.317017 674.519287 802.396606 677.501343 C 802.576599 684.245483 802.453247 690.997803 802.453247 697.79071 C 813.809631 697.79071 824.224426 697.79071 835.361328 697.79071 C 834.927795 690.789001 834.616394 684.027222 834.066406 677.284851 C 833.239502 667.148071 827.953918 659.707153 819.13147 655.127625 C 805.839722 648.228088 791.899902 647.69397 778.251709 653.689026 C 768.998169 657.753662 761.843201 664.833923 761.611328 675.55188 C 761.050476 701.4729 760.506165 727.441101 761.5177 753.329285 C 762.013 766.005188 770.891235 774.407959 783.18634 777.879517 C 794.608215 781.104614 804.644592 778.82196 811.69104 767.914612 C 812.822205 770.845154 813.814148 773.4151 814.689819 775.683777 C 821.708008 775.683777 828.286987 775.683777 835.004333 775.683777 C 835.004333 764.552063 835.004395 753.740417 835.004395 742.928711 C 835.004395 732.009644 835.004333 721.090576 835.004333 709.994934 C 831.750916 709.994934 829.10376 709.994934 825.466858 709.994934 M 7.157574 697.506836 C 7.441896 714.312683 7.345294 731.136108 8.117874 747.919495 C 8.887613 764.641235 16.107201 773.830811 31.405594 777.316284 C 38.257156 778.877319 45.698204 779.36438 52.668209 778.564636 C 65.609375 777.080078 76.952553 771.255737 80.592125 757.91626 C 83.336517 747.857788 83.143044 736.997742 84.286705 726.216553 C 72.482552 726.216553 61.914196 726.216553 50.995174 726.216553 C 50.995174 729.059631 51.057587 731.687988 50.98275 734.312378 C 50.802834 740.621643 50.64661 746.93396 50.303444 753.235291 C 50.129448 756.430298 48.006107 758.497864 45.015167 757.622437 C 43.11554 757.066345 41.42345 754.805359 40.307663 752.914001 C 39.551598 751.632507 39.861168 749.665039 39.859596 748.004211 C 39.838482 725.683411 39.826607 703.36261 39.87925 681.041931 C 39.8843 678.901184 39.729172 676.387268 40.75264 674.727478 C 41.759754 673.094116 44.153568 671.487244 45.974606 671.446045 C 47.436451 671.412964 49.594269 673.466492 50.280685 675.08667 C 51.140316 677.115662 50.950577 679.647217 50.969864 681.963806 C 51.035896 689.896118 50.995193 697.829285 50.995193 705.702881 C 62.094696 705.702881 72.651283 705.702881 84.000305 705.702881 C 83.366768 695.602356 82.912407 685.832092 82.101151 676.091553 C 81.176865 664.993835 74.776237 657.673401 64.833862 653.618103 C 51.988113 648.378662 38.842747 648.204895 26.000996 653.651855 C 15.551064 658.084229 9.356886 666.217163 8.089025 677.578003 C 7.389576 683.845581 7.443326 690.197266 7.157574 697.506836 M 303.869598 653.147705 C 303.631866 654.728027 303.188202 656.308167 303.186584 657.888733 C 303.147705 695.685913 303.15625 733.483093 303.156189 771.280334 C 303.156189 772.72699 303.156189 774.173584 303.156189 775.724915 C 322.021912 775.724915 340.396881 775.724915 358.731995 775.724915 C 358.731995 767.373413 358.731995 759.304871 358.731995 750.864563 C 350.865021 750.864563 343.263916 750.864563 335.810455 750.864563 C 335.810455 742.080933 335.810455 733.678711 335.810455 724.804932 C 342.485199 724.804932 348.878418 724.804932 355.153748 724.804932 C 355.153748 716.936279 355.153748 709.552917 355.153748 701.721863 C 348.402466 701.721863 342.009491 701.721863 335.691681 701.721863 C 335.691681 693.643066 335.691681 686.027039 335.691681 678.008301 C 342.779724 678.008301 349.700073 678.008301 356.808289 678.008301 C 356.808289 669.536438 356.808289 661.469421 356.808289 653.005432 C 339.350739 653.005432 322.081207 653.005432 303.869598 653.147705 M 873.5 652.994629 C 864.762146 652.994629 856.024292 652.994629 847.508789 652.994629 C 847.508789 694.455627 847.508789 735.152405 847.508789 775.791077 C 866.12146 775.791077 884.380676 775.791077 902.799072 775.791077 C 902.799072 767.509705 902.799072 759.443298 902.799072 750.9776 C 895.014282 750.9776 887.426636 750.9776 879.724731 750.9776 C 879.724731 742.176819 879.724731 733.777283 879.724731 724.936401 C 886.333313 724.936401 892.747498 724.936401 899.249756 724.936401 C 899.249756 717.071045 899.249756 709.650391 899.249756 701.847046 C 892.543457 701.847046 886.101257 701.847046 879.821045 701.847046 C 879.821045 693.725708 879.821045 685.993713 879.821045 677.834351 C 887.024475 677.834351 893.931946 677.834351 900.708862 677.834351 C 900.708862 669.325073 900.708862 661.256653 900.708862 652.994629 C 891.77594 652.994629 883.137939 652.994629 873.5 652.994629 M 419.056915 724.990051 C 419.45871 724.759155 420.209686 724.531189 420.211639 724.296936 C 420.273407 716.918213 420.262329 709.538757 420.262329 701.886597 C 413.468964 701.886597 407.175354 701.886597 400.707123 701.886597 C 400.707123 693.863037 400.707123 686.129272 400.707123 677.986816 C 407.805511 677.986816 414.728638 677.986816 421.798187 677.986816 C 421.798187 669.510132 421.798187 661.442871 421.798187 653.285706 C 403.883392 653.285706 386.177307 653.285706 368.432678 653.285706 C 368.432678 694.279602 368.432678 734.981812 368.432678 775.690735 C 387.087646 775.690735 405.464661 775.690735 423.697632 775.690735 C 423.697632 767.303467 423.697632 759.233704 423.697632 750.781311 C 415.811737 750.781311 408.229004 750.781311 400.634766 750.781311 C 400.634766 742.083496 400.634766 733.779236 400.634766 725.004333 C 406.536896 725.004333 412.332428 725.004333 419.056915 724.990051 M 179.153549 659.610596 C 179.153549 698.329407 179.153549 737.048279 179.153549 775.811096 C 190.211563 775.811096 200.645004 775.811096 211.482147 775.811096 C 211.482147 758.882202 211.482147 742.143066 211.482147 724.976929 C 218.294769 724.976929 224.712311 724.976929 231.26918 724.976929 C 231.26918 717.122803 231.26918 709.703186 231.26918 701.891724 C 224.581436 701.891724 218.141632 701.891724 211.800415 701.891724 C 211.800415 693.761292 211.800415 686.02771 211.800415 677.766602 C 219.291809 677.766602 226.513596 677.766602 233.624756 677.766602 C 233.624756 669.295654 233.624756 661.361633 233.624756 653.347229 C 215.384811 653.347229 197.369751 653.347229 179.153763 653.347229 C 179.153763 655.348572 179.153763 656.995972 179.153549 659.610596 M 241.153397 759.497803 C 241.153397 764.926453 241.153397 770.355042 241.153397 775.812866 C 252.210342 775.812866 262.643433 775.812866 273.477417 775.812866 C 273.477417 758.885803 273.477417 742.146851 273.477417 724.983887 C 280.288147 724.983887 286.706329 724.983887 293.273376 724.983887 C 293.273376 717.133972 293.273376 709.715088 293.273376 701.900635 C 286.592743 701.900635 280.155396 701.900635 273.796326 701.900635 C 273.796326 693.767639 273.796326 686.034973 273.796326 677.775635 C 281.280548 677.775635 288.503784 677.775635 295.629883 677.775635 C 295.629883 669.306824 295.629883 661.373474 295.629883 653.338623 C 277.396484 653.338623 259.381897 653.338623 241.153397 653.338623 C 241.153397 688.62262 241.153397 723.560547 241.153397 759.497803 M 630.149536 744.499939 C 630.149536 754.927307 630.149536 765.354675 630.149536 775.806091 C 641.215515 775.806091 651.653503 775.806091 662.302002 775.806091 C 662.302002 734.858643 662.302002 694.116028 662.302002 653.305664 C 651.519653 653.305664 640.96814 653.305664 630.149536 653.305664 C 630.149536 683.580872 630.149536 713.540405 630.149536 744.499939 z" stroke-linecap="round" />
</g>
<g transform="matrix(1 0 0 1 583.64 428.23)"  >
<path style="stroke: none; stroke-width: 1; stroke-dasharray: none; stroke-linecap: butt; stroke-dashoffset: 0; stroke-linejoin: miter; stroke-miterlimit: 4; fill: rgb(3,3,3); fill-rule: nonzero; opacity: 1;" vector-effect="non-scaling-stroke"  transform=" translate(-510.69, -302.69)" d="M 465.531342 0.999999 C 470.976776 1.648992 475.942932 2.397112 480.931946 2.931908 C 542.410339 9.522056 595.870422 34.168129 641.685547 75.287872 C 675.213135 105.379333 700.501343 141.578964 717.712524 183.239227 C 719.772217 188.224701 722.063354 189.081955 727.074219 188.765915 C 774.187805 185.794434 813.299866 201.845139 841.116333 240.498001 C 880.752197 295.574738 862.871216 370.290802 802.906921 404.06485 C 778.169434 417.997864 751.598389 422.797241 723.55304 419.144104 C 719.157959 418.571594 718.317444 420.769562 716.980103 423.78064 C 679.825073 507.436157 619.023499 566.051941 530.66333 591.729736 C 430.834808 620.740356 340.114014 599.53717 261.547943 531.75293 C 204.512482 482.544617 171.435287 419.112183 161.998566 344.429535 C 149.425491 244.925644 177.796707 158.138397 247.848969 85.971779 C 290.080536 42.465546 341.943054 16.184069 401.523438 5.286438 C 411.453827 3.470107 421.618256 2.933311 431.83728 1.402627 C 443.020905 1 454.041779 1 465.531342 0.999999 M 466.813416 168.517685 C 466.685394 168.62207 466.557373 168.726456 466.429352 168.830826 C 466.629181 168.892853 466.829041 168.95488 467.02887 169.016907 C 467.098236 168.71167 467.167603 168.406433 466.480713 168.701187 C 467.151611 170.378632 467.78064 172.074249 468.499634 173.730835 C 481.169922 202.923294 480.26181 231.229752 462.904785 258.420563 C 440.526794 293.47702 438.014709 330.09613 453.810516 368.353424 C 455.696716 372.921722 457.886719 373.74295 462.358276 372.357513 C 479.598846 367.015625 491.140442 354.982117 500.072327 340.164642 C 514.059937 316.960114 519.462952 291.372406 518.013245 264.623199 C 515.861267 224.916077 505.141693 189.261658 466.813416 168.517685 M 562.639404 108.127167 C 576.99939 101.180847 590.468567 92.819359 603.28241 83.097305 C 514.810913 14.344384 386.629517 13.849044 297.61084 82.724205 C 360.306396 133.42041 466.242249 155.835709 562.639404 108.127167 M 411.573608 543.015442 C 439.592621 546.957764 467.6026 547.033997 495.652649 543.173828 C 547.454773 536.044983 594.34314 516.958618 635.803589 485.105103 C 645.628235 477.556976 655.465881 469.366852 663.01416 459.690735 C 671.408203 448.93045 677.211609 436.145294 684.088013 424.210052 C 684.948669 422.716309 685.475098 421.029907 686.156372 419.4328 C 618.566895 486.631378 537.452271 520.083313 442.426422 516.63501 C 347.169525 513.178406 268.772949 473.583649 206.913345 400.826233 C 211.871124 414.336884 216.036179 428.305939 225.354904 439.193268 C 236.140991 451.794922 247.663254 463.991791 260.185822 474.840881 C 303.513123 512.37793 354.085541 534.466919 411.573608 543.015442 M 802.444946 357.941071 C 803.926147 356.36615 805.523193 354.884033 806.871277 353.202362 C 826.459778 328.766876 830.995605 301.802734 817.357117 273.525208 C 802.645203 243.022171 776.453125 228.668182 742.593811 225.346695 C 754.257629 278.884277 751.871704 331.149017 735.424683 383.075317 C 761.409912 383.638763 783.558289 376.124237 802.444946 357.941071 M 382.430023 277.968231 C 382.951874 283.097778 383.23587 288.264801 384.036957 293.350342 C 387.40152 314.709045 394.492798 334.569214 408.397858 351.503143 C 414.842163 359.351166 422.321777 365.972809 432.722687 370.277191 C 432.030304 368.252167 431.476105 367.087524 431.236938 365.86142 C 428.794464 353.34082 425.121826 340.898315 424.253357 328.264862 C 422.18042 298.109985 430.452393 270.528625 447.314636 245.284348 C 462.139038 223.090912 459.539673 189.964386 442.385986 169.676147 C 440.359436 167.279282 438.669281 166.687363 435.607971 167.806061 C 421.35791 173.013428 411.052063 182.87648 402.937866 195.225525 C 386.608093 220.07782 381.435486 247.821716 382.430023 277.968231 M 489.86673 417.455994 C 532.035706 412.433807 571.192383 398.904938 607.145264 375.820435 C 594.559692 375.001953 582.096252 375.062195 569.633667 374.982147 C 560.31842 374.922333 551.004211 374.687286 541.689697 374.519592 C 532.484009 374.353882 523.262573 374.452393 514.077454 373.924133 C 504.762665 373.388428 497.05307 375.197754 488.997894 381.152161 C 463.952484 399.665894 432.507019 398.316132 407.733215 378.621216 C 403.070801 374.914642 398.334686 374.208374 393.029663 374.199921 C 368.231445 374.16037 343.433136 374.177979 318.634857 374.175385 C 312.831329 374.174805 307.027802 374.175293 301.224243 374.175293 C 358.897888 410.806305 421.544098 424.753845 489.86673 417.455994 M 331.244659 454.221039 C 290.366364 436.429993 255.044403 410.895996 225.396301 377.644958 C 221.518494 373.295929 217.646332 372.948395 211.310837 374.233704 C 282.484222 465.90213 374.907562 507.381531 489.266205 495.466736 C 574.652161 486.570587 643.008667 445.579956 694.933838 376.48056 C 689.222534 374.855988 686.226746 377.030853 683.204041 380.389679 C 677.86792 386.319275 672.234192 392.020844 666.358215 397.41861 C 611.233765 448.056793 546.180542 475.573151 471.525208 479.724518 C 423.112671 482.416595 376.474884 473.91272 331.244659 454.221039 M 274.59671 380.914246 C 267.555328 373.41217 258.77774 372.766418 249.031281 374.166504 C 366.627045 493.811188 555.147156 484.061127 659.739136 375.99942 C 654.73175 375.99942 650.124573 375.839478 645.53894 376.08371 C 643.8703 376.172546 642.012512 376.893555 640.646851 377.885101 C 572.655579 427.250214 496.958099 446.763641 413.65451 436.095367 C 362.923981 429.598572 316.833588 410.984619 274.59671 380.914246 M 245.490067 337.499939 C 245.91217 269.364319 246.334274 201.228683 246.756378 133.093048 C 246.277969 132.830872 245.799561 132.568695 245.321152 132.306519 C 236.968979 145.933899 228.59874 159.550339 220.312866 173.217911 C 219.852158 173.977814 220.028473 175.159668 220.010513 176.147003 C 219.502304 204.091217 218.850739 232.034042 218.553299 259.980591 C 218.245056 288.942596 218.281784 317.908264 218.169067 346.872345 C 218.162216 348.634003 218.168167 350.395752 218.168167 352.179382 C 227.578964 352.179382 236.321564 352.179382 245.490112 352.179382 C 245.490112 347.419189 245.490112 342.95929 245.490067 337.499939 M 289.14389 197.504471 C 289.537506 171.048126 289.957733 144.592056 290.251129 118.134598 C 290.266907 116.712959 289.628448 114.758087 288.592743 113.940308 C 283.67099 110.054214 278.505859 106.476341 272.210693 101.905251 C 271.038147 105.335632 269.339478 108.059776 269.280579 110.818924 C 268.55246 144.921371 267.856354 179.02713 267.564331 213.135574 C 267.183746 257.591217 267.172241 302.050049 267.003204 346.507507 C 266.996307 348.323883 267.002319 350.14032 267.002319 352.98877 C 274.170715 353.405792 281.144928 353.811523 289.008759 354.269012 C 289.008759 301.669525 289.008759 250.082733 289.14389 197.504471 M 614.166626 289.761414 C 614.166626 311.671234 614.166626 333.581085 614.166626 355.632385 C 620.987122 355.632385 626.749756 355.632385 632.832947 355.632385 C 632.832947 348.157043 632.770935 340.876923 632.84259 333.598145 C 633.549072 261.812042 634.1427 190.024185 635.202637 118.243233 C 635.312378 110.808983 632.188721 106.674629 626.75061 102.725456 C 622.874573 106.953644 616.374878 108.081657 616.34552 115.976837 C 616.212158 151.778076 615.492188 187.577011 615.00354 223.37706 C 614.70575 245.189835 614.444519 267.003113 614.166626 289.761414 M 539.168884 254.712463 C 539.168884 287.848297 539.168884 320.984131 539.168884 354.474976 C 545.602783 354.474976 551.877563 354.474976 558.037842 354.474976 C 558.739075 283.922058 559.440002 213.391541 560.145813 142.375458 C 553.6026 144.838013 547.326538 147.200043 541.058044 149.559219 C 540.42395 184.539963 539.796631 219.150787 539.168884 254.712463 M 673.998535 248.50029 C 674.386597 223.021561 674.785828 197.542984 675.146729 172.063873 C 675.186401 169.261826 675.994995 165.882172 674.757446 163.751862 C 669.249146 154.269379 663.12616 145.143951 657.225342 135.889465 C 656.695496 136.087967 656.16571 136.286469 655.635864 136.484985 C 654.967346 208.839752 654.298828 281.194519 653.628601 353.730255 C 660.854858 353.730255 667.095398 353.730255 673.998535 353.730255 C 673.998535 318.808929 673.998535 284.154724 673.998535 248.50029 M 327.490875 163.585022 C 327.658173 155.765671 327.904572 147.946457 327.920044 140.126816 C 327.922852 138.715836 327.391449 136.596313 326.397003 136.012268 C 321.88443 133.361969 317.117706 131.144424 311.306 128.19426 C 310.682526 204.091797 310.066833 279.041382 309.450104 354.117249 C 315.653809 354.117249 320.70047 354.117249 325.242462 354.117249 C 325.99472 290.681183 326.742462 227.624863 327.490875 163.585022 M 578.846191 352.390503 C 579.795898 353.313995 580.681763 354.940918 581.706848 355.033905 C 585.311768 355.360992 588.964478 355.16095 592.577454 355.16095 C 593.30957 278.549316 594.042297 201.875809 594.778137 124.875923 C 590.722229 127.095451 586.982788 128.901245 583.537903 131.156723 C 582.322266 131.952591 581.136292 133.831757 581.103455 135.243484 C 580.360474 167.173203 579.529053 199.104401 579.232239 231.040131 C 578.859253 271.159332 578.949036 311.282867 578.846191 352.390503 M 361.161865 318.500061 C 361.66568 262.477905 362.169525 206.45575 362.672546 150.520889 C 357.714203 148.814301 353.052795 147.209915 347.66748 145.356384 C 346.95755 215.362656 346.254425 284.697479 345.549713 354.188751 C 351.407196 354.188751 356.124268 354.188751 361.161865 354.188751 C 361.161865 342.426849 361.161865 330.96347 361.161865 318.500061 M 692.999451 331.499969 C 692.999451 338.926331 692.999451 346.352692 692.999451 353.883545 C 697.172668 353.883545 700.798523 353.883545 704.396179 353.883545 C 716.96698 323.092316 710.424133 225.76915 693.797791 208.162048 C 693.527588 249.569748 693.263489 290.034882 692.999451 331.499969 M 379.061493 556.505432 C 372.009888 554.584351 364.893829 552.868896 357.924866 550.684143 C 350.9552 548.499146 344.093201 545.949402 337.256958 543.366577 C 330.702576 540.890137 324.241791 538.165955 317.739868 535.550659 C 317.615173 536.011902 317.490448 536.473145 317.365753 536.934326 C 396.177979 582.006104 476.973389 586.287659 559.708069 548.678406 C 557.850098 548.389404 556.042603 548.961121 554.238831 549.544495 C 525.579102 558.814087 496.21051 563.96637 466.09433 565.015137 C 436.974823 566.029175 408.241333 563.278687 379.061493 556.505432 M 198.854004 328.499969 C 198.854004 294.958588 198.854004 261.417236 198.854004 227.640854 C 187.423035 268.763092 185.905518 310.196838 192.985123 352.197052 C 195.056427 352.197052 196.794006 352.197052 198.854004 352.197052 C 198.854004 344.411865 198.854004 336.955902 198.854004 328.499969 M 503.680145 159.182281 C 500.57135 159.817627 497.462524 160.452988 495.263428 160.90242 C 503.590118 171.093079 511.884033 181.243607 520.21637 191.441177 C 520.21637 179.898651 520.21637 168.005157 520.21637 155.778702 C 515.139099 156.838425 509.828552 157.946854 503.680145 159.182281 M 389.594849 157.848358 C 387.563568 157.435745 385.532288 157.023132 383.206909 156.550781 C 383.206909 167.316071 383.206909 177.475784 383.206909 187.010773 C 390.557617 178.435196 398.055908 169.687424 405.550964 160.943436 C 400.809937 160.015472 395.63028 159.001663 389.594849 157.848358 M 206.063889 399.547516 C 206.288559 399.631348 206.513245 399.715149 206.737915 399.798981 C 206.671906 399.575897 206.605896 399.352844 206.063889 399.547516 z" stroke-linecap="round" />
</g>
<g transform="matrix(1 0 0 1 785.27 840.05)"  >
<path style="stroke: none; stroke-width: 1; stroke-dasharray: none; stroke-linecap: butt; stroke-dashoffset: 0; stroke-linejoin: miter; stroke-miterlimit: 4; fill: rgb(2,2,2); fill-rule: nonzero; opacity: 1;" vector-effect="non-scaling-stroke"  transform=" translate(-712.32, -714.52)" d="M 708.984802 652.996338 C 717.539307 653.962402 725.793884 654.140625 733.604553 656.093994 C 743.340576 658.528992 748.809814 665.905884 748.943787 675.863098 C 749.304138 702.656921 749.343262 729.462158 748.975159 756.255432 C 748.821411 767.451233 742.69281 773.701599 731.439087 775.056641 C 724.198425 775.928406 716.8302 775.879822 709.515747 775.967896 C 698.223083 776.103882 686.927612 776.003662 675.398132 776.003662 C 675.398132 734.998657 675.398132 694.394836 675.398132 652.996338 C 686.339417 652.996338 697.413696 652.996338 708.984802 652.996338 M 717.170044 745.723572 C 717.187622 724.452515 717.326111 703.180481 717.151062 681.911011 C 717.09668 675.303833 714.853577 673.832703 707.717896 674.512695 C 707.717896 701.183533 707.717896 727.870972 707.717896 754.545349 C 714.817932 754.834717 716.280334 753.546875 717.170044 745.723572 z" stroke-linecap="round" />
</g>
<g transform="matrix(1 0 0 1 570.55 840)"  >
<path style="stroke: none; stroke-width: 1; stroke-dasharray: none; stroke-linecap: butt; stroke-dashoffset: 0; stroke-linejoin: miter; stroke-miterlimit: 4; fill: rgb(2,2,2); fill-rule: nonzero; opacity: 1;" vector-effect="non-scaling-stroke"  transform=" translate(-497.59, -714.46)" d="M 529.949097 717.103699 C 531.728516 721.171631 534.41156 724.934326 534.553711 728.79071 C 534.944458 739.385681 534.868469 750.079163 533.826782 760.619995 C 532.983093 769.156982 527.343628 774.439148 518.945251 774.838745 C 499.546143 775.761902 480.113312 775.976868 460.418884 776.486145 C 460.418884 734.947266 460.418884 694.25061 460.418884 652.439941 C 477.573792 653.041443 494.713867 652.763733 511.644043 654.515076 C 525.096375 655.906555 531.627808 665.837158 532.809143 682.342468 C 532.915955 683.834534 532.945557 685.332458 532.994812 686.828186 C 533.467957 701.187866 531.21521 704.804688 518.723999 710.235657 C 522.235657 712.350342 525.9646 714.595764 529.949097 717.103699 M 497.631866 754.252075 C 502.304138 753.58551 502.653778 749.861694 502.80896 746.394165 C 503.053589 740.929077 502.990143 735.442749 502.858765 729.970215 C 502.68158 722.588074 500.704041 720.965515 492.702667 721.483215 C 492.702667 732.491577 492.702667 743.51593 492.702667 754.920959 C 494.299438 754.742432 495.575562 754.599792 497.631866 754.252075 M 495.43866 701.887695 C 499.881348 702.073242 502.344116 700.036438 502.467346 695.50647 C 502.593353 690.874573 503.030975 686.205994 502.625885 681.615784 C 502.067017 675.282593 499.531311 673.698914 492.433472 674.62616 C 492.433472 682.998169 492.383636 691.434937 492.526855 699.868347 C 492.538452 700.551941 493.872437 701.213135 495.43866 701.887695 z" stroke-linecap="round" />
</g>
<g transform="matrix(1 0 0 1 203.49 840.12)"  >
<path style="stroke: none; stroke-width: 1; stroke-dasharray: none; stroke-linecap: butt; stroke-dashoffset: 0; stroke-linejoin: miter; stroke-miterlimit: 4; fill: rgb(3,3,3); fill-rule: nonzero; opacity: 1;" vector-effect="non-scaling-stroke"  transform=" translate(-130.55, -714.59)" d="M 95.139755 672.435181 C 99.521751 659.682434 108.405151 652.674255 121.098976 650.764832 C 135.219147 648.640869 148.769669 649.630249 159.439392 660.858093 C 163.935349 665.589233 166.847382 671.360352 166.908875 677.850891 C 167.140503 702.294495 167.545395 726.758789 166.776215 751.180359 C 166.379883 763.763672 158.580521 772.397583 146.664398 776.533447 C 135.638626 780.360291 124.406754 780.264709 113.443275 776.079712 C 101.554672 771.541504 94.540672 762.580322 94.212463 750.040649 C 93.595024 726.450439 93.999512 702.832642 94.066185 679.226562 C 94.072205 677.094849 94.710823 674.964905 95.139755 672.435181 M 126.419655 674.441895 C 126.223763 676.09021 125.859306 677.738281 125.857338 679.38678 C 125.829308 702.865479 125.840569 726.344238 125.880341 749.822876 C 125.883141 751.476013 125.72596 753.387573 126.473503 754.709351 C 127.236229 756.057983 129.008057 757.604797 130.367355 757.63269 C 131.748062 757.660889 133.53508 756.201904 134.450699 754.904724 C 135.213867 753.823608 135.136917 752.035461 135.151917 750.557678 C 135.310593 734.912415 135.488235 719.266663 135.502579 703.620911 C 135.510971 694.470642 135.371964 685.313965 134.958664 676.175537 C 134.883911 674.522827 133.393112 671.883545 132.13176 671.602295 C 130.57283 671.2547 128.57074 672.894165 126.419655 674.441895 z" stroke-linecap="round" />
</g>
<g transform="matrix(1 0 0 1 655.16 839.9)"  >
<path style="stroke: none; stroke-width: 1; stroke-dasharray: none; stroke-linecap: butt; stroke-dashoffset: 0; stroke-linejoin: miter; stroke-miterlimit: 4; fill: rgb(3,3,3); fill-rule: nonzero; opacity: 1;" vector-effect="non-scaling-stroke"  transform=" translate(-582.21, -714.36)" d="M 587.995239 761.993774 C 587.954041 750.831116 588.114014 740.161011 587.7995 729.504883 C 587.597229 722.654236 586.180359 721.608765 578.731079 721.310242 C 578.731079 739.380249 578.731079 757.441467 578.731079 775.750244 C 567.713501 775.750244 557.279297 775.750244 546.499756 775.750244 C 546.499756 735.107361 546.499756 694.379333 546.499756 652.995239 C 549.308777 652.995239 552.243225 652.938171 555.174866 653.005066 C 568.655701 653.312622 582.153198 653.337219 595.610535 654.081909 C 607.047119 654.714722 615.031433 661.763855 616.768372 673.089661 C 617.919067 680.592712 618.160156 688.384766 617.617554 695.962158 C 616.84845 706.702515 613.989746 709.372864 602.794983 712.424988 C 604.269592 713.085388 605.319702 713.598694 606.401428 714.033081 C 613.614929 716.930359 617.740906 722.195618 617.826843 730.010559 C 617.993286 745.150085 617.875549 760.292786 617.875549 775.719238 C 608.047974 775.719238 598.307922 775.719238 587.995239 775.719238 C 587.995239 771.363892 587.995239 766.92804 587.995239 761.993774 M 578.423279 690.468323 C 578.423279 694.20697 578.423279 697.945679 578.423279 701.649414 C 586.042114 701.680237 587.73468 700.25293 587.992737 693.855591 C 588.15387 689.864136 588.165283 685.855408 587.999817 681.864624 C 587.755737 675.977234 585.115479 673.955811 578.423279 674.606506 C 578.423279 679.533997 578.423279 684.508362 578.423279 690.468323 z" stroke-linecap="round" />
</g>
<g transform="matrix(1 0 0 1 871.1 839.92)"  >
<path style="stroke: none; stroke-width: 1; stroke-dasharray: none; stroke-linecap: butt; stroke-dashoffset: 0; stroke-linejoin: miter; stroke-miterlimit: 4; fill: rgb(2,2,2); fill-rule: nonzero; opacity: 1;" vector-effect="non-scaling-stroke"  transform=" translate(-798.16, -714.39)" d="M 825.961792 709.994934 C 829.10376 709.994934 831.750916 709.994934 835.004333 709.994934 C 835.004333 721.090576 835.004395 732.009644 835.004395 742.928711 C 835.004395 753.740417 835.004333 764.552063 835.004333 775.683777 C 828.286987 775.683777 821.708008 775.683777 814.689819 775.683777 C 813.814148 773.4151 812.822205 770.845154 811.69104 767.914612 C 804.644592 778.82196 794.608215 781.104614 783.18634 777.879517 C 770.891235 774.407959 762.013 766.005188 761.5177 753.329285 C 760.506165 727.441101 761.050476 701.4729 761.611328 675.55188 C 761.843201 664.833923 768.998169 657.753662 778.251709 653.689026 C 791.899902 647.69397 805.839722 648.228088 819.13147 655.127625 C 827.953918 659.707153 833.239502 667.148071 834.066406 677.284851 C 834.616394 684.027222 834.927795 690.789001 835.361328 697.79071 C 824.224426 697.79071 813.809631 697.79071 802.453247 697.79071 C 802.453247 690.997803 802.576599 684.245483 802.396606 677.501343 C 802.317017 674.519287 802.027527 671.107544 797.731995 671.216187 C 793.301331 671.328247 792.976318 674.765991 792.967346 678.001526 C 792.900574 702.14679 792.915222 726.292297 792.910156 750.437683 C 792.910095 750.935852 792.960938 751.436401 793.021362 751.931824 C 793.381958 754.88916 794.042847 757.732605 797.795776 757.782959 C 801.319824 757.830383 802.979736 755.488342 803.048096 752.343872 C 803.220825 744.405579 803.105347 736.461121 803.105347 728.173767 C 801.733154 728.092346 799.962646 727.987244 797.840271 727.861267 C 797.840271 722.101624 797.840271 716.387085 797.840271 709.994934 C 806.986389 709.994934 816.226624 709.994934 825.961792 709.994934 z" stroke-linecap="round" />
</g>
<g transform="matrix(1 0 0 1 118.67 839.83)"  >
<path style="stroke: none; stroke-width: 1; stroke-dasharray: none; stroke-linecap: butt; stroke-dashoffset: 0; stroke-linejoin: miter; stroke-miterlimit: 4; fill: rgb(3,3,3); fill-rule: nonzero; opacity: 1;" vector-effect="non-scaling-stroke"  transform=" translate(-45.72, -714.29)" d="M 7.157545 697.008911 C 7.443326 690.197266 7.389576 683.845581 8.089025 677.578003 C 9.356886 666.217163 15.551064 658.084229 26.000996 653.651855 C 38.842747 648.204895 51.988113 648.378662 64.833862 653.618103 C 74.776237 657.673401 81.176865 664.993835 82.101151 676.091553 C 82.912407 685.832092 83.366768 695.602356 84.000305 705.702881 C 72.651283 705.702881 62.094696 705.702881 50.995193 705.702881 C 50.995193 697.829285 51.035896 689.896118 50.969864 681.963806 C 50.950577 679.647217 51.140316 677.115662 50.280685 675.08667 C 49.594269 673.466492 47.436451 671.412964 45.974606 671.446045 C 44.153568 671.487244 41.759754 673.094116 40.75264 674.727478 C 39.729172 676.387268 39.8843 678.901184 39.87925 681.041931 C 39.826607 703.36261 39.838482 725.683411 39.859596 748.004211 C 39.861168 749.665039 39.551598 751.632507 40.307663 752.914001 C 41.42345 754.805359 43.11554 757.066345 45.015167 757.622437 C 48.006107 758.497864 50.129448 756.430298 50.303444 753.235291 C 50.64661 746.93396 50.802834 740.621643 50.98275 734.312378 C 51.057587 731.687988 50.995174 729.059631 50.995174 726.216553 C 61.914196 726.216553 72.482552 726.216553 84.286705 726.216553 C 83.143044 736.997742 83.336517 747.857788 80.592125 757.91626 C 76.952553 771.255737 65.609375 777.080078 52.668209 778.564636 C 45.698204 779.36438 38.257156 778.877319 31.405594 777.316284 C 16.107201 773.830811 8.887613 764.641235 8.117874 747.919495 C 7.345294 731.136108 7.441896 714.312683 7.157545 697.008911 z" stroke-linecap="round" />
</g>
<g transform="matrix(1 0 0 1 403.89 839.9)"  >
<path style="stroke: none; stroke-width: 1; stroke-dasharray: none; stroke-linecap: butt; stroke-dashoffset: 0; stroke-linejoin: miter; stroke-miterlimit: 4; fill: rgb(3,3,3); fill-rule: nonzero; opacity: 1;" vector-effect="non-scaling-stroke"  transform=" translate(-330.94, -714.37)" d="M 304.340637 653.076538 C 322.081207 653.005432 339.350739 653.005432 356.808289 653.005432 C 356.808289 661.469421 356.808289 669.536438 356.808289 678.008301 C 349.700073 678.008301 342.779724 678.008301 335.691681 678.008301 C 335.691681 686.027039 335.691681 693.643066 335.691681 701.721863 C 342.009491 701.721863 348.402466 701.721863 355.153748 701.721863 C 355.153748 709.552917 355.153748 716.936279 355.153748 724.804932 C 348.878418 724.804932 342.485199 724.804932 335.810455 724.804932 C 335.810455 733.678711 335.810455 742.080933 335.810455 750.864563 C 343.263916 750.864563 350.865021 750.864563 358.731995 750.864563 C 358.731995 759.304871 358.731995 767.373413 358.731995 775.724915 C 340.396881 775.724915 322.021912 775.724915 303.156189 775.724915 C 303.156189 774.173584 303.156189 772.72699 303.156189 771.280334 C 303.15625 733.483093 303.147705 695.685913 303.186584 657.888733 C 303.188202 656.308167 303.631866 654.728027 304.340637 653.076538 z" stroke-linecap="round" />
</g>
<g transform="matrix(1 0 0 1 948.11 839.93)"  >
<path style="stroke: none; stroke-width: 1; stroke-dasharray: none; stroke-linecap: butt; stroke-dashoffset: 0; stroke-linejoin: miter; stroke-miterlimit: 4; fill: rgb(3,3,3); fill-rule: nonzero; opacity: 1;" vector-effect="non-scaling-stroke"  transform=" translate(-875.15, -714.39)" d="M 874 652.994629 C 883.137939 652.994629 891.77594 652.994629 900.708862 652.994629 C 900.708862 661.256653 900.708862 669.325073 900.708862 677.834351 C 893.931946 677.834351 887.024475 677.834351 879.821045 677.834351 C 879.821045 685.993713 879.821045 693.725708 879.821045 701.847046 C 886.101257 701.847046 892.543457 701.847046 899.249756 701.847046 C 899.249756 709.650391 899.249756 717.071045 899.249756 724.936401 C 892.747498 724.936401 886.333313 724.936401 879.724731 724.936401 C 879.724731 733.777283 879.724731 742.176819 879.724731 750.9776 C 887.426636 750.9776 895.014282 750.9776 902.799072 750.9776 C 902.799072 759.443298 902.799072 767.509705 902.799072 775.791077 C 884.380676 775.791077 866.12146 775.791077 847.508789 775.791077 C 847.508789 735.152405 847.508789 694.455627 847.508789 652.994629 C 856.024292 652.994629 864.762146 652.994629 874 652.994629 z" stroke-linecap="round" />
</g>
<g transform="matrix(1 0 0 1 469.01 840.02)"  >
<path style="stroke: none; stroke-width: 1; stroke-dasharray: none; stroke-linecap: butt; stroke-dashoffset: 0; stroke-linejoin: miter; stroke-miterlimit: 4; fill: rgb(3,3,3); fill-rule: nonzero; opacity: 1;" vector-effect="non-scaling-stroke"  transform=" translate(-396.07, -714.49)" d="M 418.592438 724.997192 C 412.332428 725.004333 406.536896 725.004333 400.634766 725.004333 C 400.634766 733.779236 400.634766 742.083496 400.634766 750.781311 C 408.229004 750.781311 415.811737 750.781311 423.697632 750.781311 C 423.697632 759.233704 423.697632 767.303467 423.697632 775.690735 C 405.464661 775.690735 387.087646 775.690735 368.432678 775.690735 C 368.432678 734.981812 368.432678 694.279602 368.432678 653.285706 C 386.177307 653.285706 403.883392 653.285706 421.798187 653.285706 C 421.798187 661.442871 421.798187 669.510132 421.798187 677.986816 C 414.728638 677.986816 407.805511 677.986816 400.707123 677.986816 C 400.707123 686.129272 400.707123 693.863037 400.707123 701.886597 C 407.175354 701.886597 413.468964 701.886597 420.262329 701.886597 C 420.262329 709.538757 420.273407 716.918213 420.211639 724.296936 C 420.209686 724.531189 419.45871 724.759155 418.592438 724.997192 z" stroke-linecap="round" />
</g>
<g transform="matrix(1 0 0 1 279.34 840.12)"  >
<path style="stroke: none; stroke-width: 1; stroke-dasharray: none; stroke-linecap: butt; stroke-dashoffset: 0; stroke-linejoin: miter; stroke-miterlimit: 4; fill: rgb(4,4,4); fill-rule: nonzero; opacity: 1;" vector-effect="non-scaling-stroke"  transform=" translate(-206.39, -714.58)" d="M 179.153656 659.127014 C 179.153763 656.995972 179.153763 655.348572 179.153763 653.347229 C 197.369751 653.347229 215.384811 653.347229 233.624756 653.347229 C 233.624756 661.361633 233.624756 669.295654 233.624756 677.766602 C 226.513596 677.766602 219.291809 677.766602 211.800415 677.766602 C 211.800415 686.02771 211.800415 693.761292 211.800415 701.891724 C 218.141632 701.891724 224.581436 701.891724 231.26918 701.891724 C 231.26918 709.703186 231.26918 717.122803 231.26918 724.976929 C 224.712311 724.976929 218.294769 724.976929 211.482147 724.976929 C 211.482147 742.143066 211.482147 758.882202 211.482147 775.811096 C 200.645004 775.811096 190.211563 775.811096 179.153549 775.811096 C 179.153549 737.048279 179.153549 698.329407 179.153656 659.127014 z" stroke-linecap="round" />
</g>
<g transform="matrix(1 0 0 1 341.34 840.12)"  >
<path style="stroke: none; stroke-width: 1; stroke-dasharray: none; stroke-linecap: butt; stroke-dashoffset: 0; stroke-linejoin: miter; stroke-miterlimit: 4; fill: rgb(4,4,4); fill-rule: nonzero; opacity: 1;" vector-effect="non-scaling-stroke"  transform=" translate(-268.39, -714.58)" d="M 241.153397 758.998108 C 241.153397 723.560547 241.153397 688.62262 241.153397 653.338623 C 259.381897 653.338623 277.396484 653.338623 295.629883 653.338623 C 295.629883 661.373474 295.629883 669.306824 295.629883 677.775635 C 288.503784 677.775635 281.280548 677.775635 273.796326 677.775635 C 273.796326 686.034973 273.796326 693.767639 273.796326 701.900635 C 280.155396 701.900635 286.592743 701.900635 293.273376 701.900635 C 293.273376 709.715088 293.273376 717.133972 293.273376 724.983887 C 286.706329 724.983887 280.288147 724.983887 273.477417 724.983887 C 273.477417 742.146851 273.477417 758.885803 273.477417 775.812866 C 262.643433 775.812866 252.210342 775.812866 241.153397 775.812866 C 241.153397 770.355042 241.153397 764.926453 241.153397 758.998108 z" stroke-linecap="round" />
</g>
<g transform="matrix(1 0 0 1 719.18 840.09)"  >
<path style="stroke: none; stroke-width: 1; stroke-dasharray: none; stroke-linecap: butt; stroke-dashoffset: 0; stroke-linejoin: miter; stroke-miterlimit: 4; fill: rgb(6,6,6); fill-rule: nonzero; opacity: 1;" vector-effect="non-scaling-stroke"  transform=" translate(-646.23, -714.56)" d="M 630.149536 743.999878 C 630.149536 713.540405 630.149536 683.580872 630.149536 653.305664 C 640.96814 653.305664 651.519653 653.305664 662.302002 653.305664 C 662.302002 694.116028 662.302002 734.858643 662.302002 775.806091 C 651.653503 775.806091 641.215515 775.806091 630.149536 775.806091 C 630.149536 765.354675 630.149536 754.927307 630.149536 743.999878 z" stroke-linecap="round" />
</g>
<g transform="matrix(1 0 0 1 523.4 208.43)"  >
<path style="stroke: none; stroke-width: 1; stroke-dasharray: none; stroke-linecap: butt; stroke-dashoffset: 0; stroke-linejoin: miter; stroke-miterlimit: 4; fill: rgb(254,254,254); fill-opacity: 0; fill-rule: nonzero; opacity: 1;" vector-effect="non-scaling-stroke"  transform=" translate(-450.45, -82.89)" d="M 562.314453 108.314247 C 466.242249 155.835709 360.306396 133.42041 297.61084 82.724205 C 386.629517 13.849044 514.810913 14.344384 603.28241 83.097305 C 590.468567 92.819359 576.99939 101.180847 562.314453 108.314247 z" stroke-linecap="round" />
</g>
<g transform="matrix(1 0 0 1 519.48 598.96)"  >
<path style="stroke: none; stroke-width: 1; stroke-dasharray: none; stroke-linecap: butt; stroke-dashoffset: 0; stroke-linejoin: miter; stroke-miterlimit: 4; fill: rgb(252,252,252); fill-opacity: 0; fill-rule: nonzero; opacity: 1;" vector-effect="non-scaling-stroke"  transform=" translate(-446.53, -473.42)" d="M 411.129211 542.991089 C 354.085541 534.466919 303.513123 512.37793 260.185822 474.840881 C 247.663254 463.991791 236.140991 451.794922 225.354904 439.193268 C 216.036179 428.305939 211.871124 414.336884 206.913345 400.826233 C 268.772949 473.583649 347.169525 513.178406 442.426422 516.63501 C 537.452271 520.083313 618.566895 486.631378 686.156372 419.4328 C 685.475098 421.029907 684.948669 422.716309 684.088013 424.210052 C 677.211609 436.145294 671.408203 448.93045 663.01416 459.690735 C 655.465881 469.366852 645.628235 477.556976 635.803589 485.105103 C 594.34314 516.958618 547.454773 536.044983 495.652649 543.173828 C 467.6026 547.033997 439.592621 546.957764 411.129211 542.991089 z" stroke-linecap="round" />
</g>
<g transform="matrix(1 0 0 1 853.26 429.77)"  >
<path style="stroke: none; stroke-width: 1; stroke-dasharray: none; stroke-linecap: butt; stroke-dashoffset: 0; stroke-linejoin: miter; stroke-miterlimit: 4; fill: rgb(254,254,254); fill-opacity: 0; fill-rule: nonzero; opacity: 1;" vector-effect="non-scaling-stroke"  transform=" translate(-780.32, -304.23)" d="M 802.193237 358.193054 C 783.558289 376.124237 761.409912 383.638763 735.424683 383.075317 C 751.871704 331.149017 754.257629 278.884277 742.593811 225.346695 C 776.453125 228.668182 802.645203 243.022171 817.357117 273.525208 C 830.995605 301.802734 826.459778 328.766876 806.871277 353.202362 C 805.523193 354.884033 803.926147 356.36615 802.193237 358.193054 z" stroke-linecap="round" />
</g>
<g transform="matrix(1 0 0 1 553.93 396.09)"  >
<path style="stroke: none; stroke-width: 1; stroke-dasharray: none; stroke-linecap: butt; stroke-dashoffset: 0; stroke-linejoin: miter; stroke-miterlimit: 4; fill: rgb(254,254,254); fill-opacity: 0; fill-rule: nonzero; opacity: 1;" vector-effect="non-scaling-stroke"  transform=" translate(-480.98, -270.55)" d="M 467.268097 168.127899 C 505.141693 189.261658 515.861267 224.916077 518.013245 264.623199 C 519.462952 291.372406 514.059937 316.960114 500.072327 340.164642 C 491.140442 354.982117 479.598846 367.015625 462.358276 372.357513 C 457.886719 373.74295 455.696716 372.921722 453.810516 368.353424 C 438.014709 330.09613 440.526794 293.47702 462.904785 258.420563 C 480.26181 231.229752 481.169922 202.923294 468.499634 173.730835 C 467.78064 172.074249 467.151611 170.378632 466.847656 168.455841 C 467.2146 168.210495 467.268097 168.127899 467.268097 168.127899 z" stroke-linecap="round" />
</g>
<g transform="matrix(1 0 0 1 492.58 394.31)"  >
<path style="stroke: none; stroke-width: 1; stroke-dasharray: none; stroke-linecap: butt; stroke-dashoffset: 0; stroke-linejoin: miter; stroke-miterlimit: 4; fill: rgb(254,254,254); fill-opacity: 0; fill-rule: nonzero; opacity: 1;" vector-effect="non-scaling-stroke"  transform=" translate(-419.63, -268.77)" d="M 382.356445 277.508606 C 381.435486 247.821716 386.608093 220.07782 402.937866 195.225525 C 411.052063 182.87648 421.35791 173.013428 435.607971 167.806061 C 438.669281 166.687363 440.359436 167.279282 442.385986 169.676147 C 459.539673 189.964386 462.139038 223.090912 447.314636 245.284348 C 430.452393 270.528625 422.18042 298.109985 424.253357 328.264862 C 425.121826 340.898315 428.794464 353.34082 431.236938 365.86142 C 431.476105 367.087524 432.030304 368.252167 432.722687 370.277191 C 422.321777 365.972809 414.842163 359.351166 408.397858 351.503143 C 394.492798 334.569214 387.40152 314.709045 384.036957 293.350342 C 383.23587 288.264801 382.951874 283.097778 382.356445 277.508606 z" stroke-linecap="round" />
</g>
<g transform="matrix(1 0 0 1 527.13 522.14)"  >
<path style="stroke: none; stroke-width: 1; stroke-dasharray: none; stroke-linecap: butt; stroke-dashoffset: 0; stroke-linejoin: miter; stroke-miterlimit: 4; fill: rgb(253,253,253); fill-opacity: 0; fill-rule: nonzero; opacity: 1;" vector-effect="non-scaling-stroke"  transform=" translate(-454.18, -396.61)" d="M 489.424896 417.552307 C 421.544098 424.753845 358.897888 410.806305 301.224243 374.175293 C 307.027802 374.175293 312.831329 374.174805 318.634857 374.175385 C 343.433136 374.177979 368.231445 374.16037 393.029663 374.199921 C 398.334686 374.208374 403.070801 374.914642 407.733215 378.621216 C 432.507019 398.316132 463.952484 399.665894 488.997894 381.152161 C 497.05307 375.197754 504.762665 373.388428 514.077454 373.924133 C 523.262573 374.452393 532.484009 374.353882 541.689697 374.519592 C 551.004211 374.687286 560.31842 374.922333 569.633667 374.982147 C 582.096252 375.062195 594.559692 375.001953 607.145264 375.820435 C 571.192383 398.904938 532.035706 412.433807 489.424896 417.552307 z" stroke-linecap="round" />
</g>
<g transform="matrix(1 0 0 1 637.93 701.43)"  >
<path style="stroke: none; stroke-width: 0; stroke-dasharray: none; stroke-linecap: butt; stroke-dashoffset: 0; stroke-linejoin: miter; stroke-miterlimit: 4; fill: rgb(74,118,163); fill-opacity: 0; fill-rule: nonzero; opacity: 1;" vector-effect="non-scaling-stroke"  transform=" translate(-453.12, -435.52)" d="M 331.571289 454.416992 C 376.474884 473.91272 423.112671 482.416595 471.525208 479.724518 C 546.180542 475.573151 611.233765 448.056793 666.358215 397.41861 C 672.234192 392.020844 677.86792 386.319275 683.204041 380.389679 C 686.226746 377.030853 689.222534 374.855988 694.933838 376.48056 C 643.008667 445.579956 574.652161 486.570587 489.266205 495.466736 C 374.907562 507.381531 282.484222 465.90213 211.310837 374.233704 C 217.646332 372.948395 221.518494 373.295929 225.396301 377.644958 C 255.044403 410.895996 290.366364 436.429993 331.571289 454.416992 z" stroke-linecap="round" />
</g>
<g transform="matrix(1 0 0 1 305.41 367.79)"  >
<path style="stroke: none; stroke-width: 1; stroke-dasharray: none; stroke-linecap: butt; stroke-dashoffset: 0; stroke-linejoin: miter; stroke-miterlimit: 4; fill: rgb(253,253,253); fill-opacity: 0; fill-rule: nonzero; opacity: 1;" vector-effect="non-scaling-stroke"  transform=" translate(-232.46, -242.24)" d="M 245.490082 337.999695 C 245.490112 342.95929 245.490112 347.419189 245.490112 352.179382 C 236.321564 352.179382 227.578964 352.179382 218.168167 352.179382 C 218.168167 350.395752 218.162216 348.634003 218.169067 346.872345 C 218.281784 317.908264 218.245056 288.942596 218.553299 259.980591 C 218.850739 232.034042 219.502304 204.091217 220.010513 176.147003 C 220.028473 175.159668 219.852158 173.977814 220.312866 173.217911 C 228.59874 159.550339 236.968979 145.933899 245.321152 132.306519 C 245.799561 132.568695 246.277969 132.830872 246.756378 133.093048 C 246.334274 201.228683 245.91217 269.364319 245.490082 337.999695 z" stroke-linecap="round" />
</g>
<g transform="matrix(1 0 0 1 351.58 353.62)"  >
<path style="stroke: none; stroke-width: 1; stroke-dasharray: none; stroke-linecap: butt; stroke-dashoffset: 0; stroke-linejoin: miter; stroke-miterlimit: 4; fill: rgb(254,254,254); fill-opacity: 0; fill-rule: nonzero; opacity: 1;" vector-effect="non-scaling-stroke"  transform=" translate(-278.63, -228.09)" d="M 289.076324 198.000198 C 289.008759 250.082733 289.008759 301.669525 289.008759 354.269012 C 281.144928 353.811523 274.170715 353.405792 267.002319 352.98877 C 267.002319 350.14032 266.996307 348.323883 267.003204 346.507507 C 267.172241 302.050049 267.183746 257.591217 267.564331 213.135574 C 267.856354 179.02713 268.55246 144.921371 269.280579 110.818924 C 269.339478 108.059776 271.038147 105.335632 272.210693 101.905251 C 278.505859 106.476341 283.67099 110.054214 288.592743 113.940308 C 289.628448 114.758087 290.266907 116.712959 290.251129 118.134598 C 289.957733 144.592056 289.537506 171.048126 289.076324 198.000198 z" stroke-linecap="round" />
</g>
<g transform="matrix(1 0 0 1 697.63 354.71)"  >
<path style="stroke: none; stroke-width: 1; stroke-dasharray: none; stroke-linecap: butt; stroke-dashoffset: 0; stroke-linejoin: miter; stroke-miterlimit: 4; fill: rgb(252,252,252); fill-opacity: 0; fill-rule: nonzero; opacity: 1;" vector-effect="non-scaling-stroke"  transform=" translate(-624.69, -229.18)" d="M 614.166748 289.288788 C 614.444519 267.003113 614.70575 245.189835 615.00354 223.37706 C 615.492188 187.577011 616.212158 151.778076 616.34552 115.976837 C 616.374878 108.081657 622.874573 106.953644 626.75061 102.725456 C 632.188721 106.674629 635.312378 110.808983 635.202637 118.243233 C 634.1427 190.024185 633.549072 261.812042 632.84259 333.598145 C 632.770935 340.876923 632.832947 348.157043 632.832947 355.632385 C 626.749756 355.632385 620.987122 355.632385 614.166626 355.632385 C 614.166626 333.581085 614.166626 311.671234 614.166748 289.288788 z" stroke-linecap="round" />
</g>
<g transform="matrix(1 0 0 1 622.61 373.96)"  >
<path style="stroke: none; stroke-width: 1; stroke-dasharray: none; stroke-linecap: butt; stroke-dashoffset: 0; stroke-linejoin: miter; stroke-miterlimit: 4; fill: rgb(253,253,253); fill-opacity: 0; fill-rule: nonzero; opacity: 1;" vector-effect="non-scaling-stroke"  transform=" translate(-549.66, -248.43)" d="M 539.169067 254.23703 C 539.796631 219.150787 540.42395 184.539963 541.058044 149.559219 C 547.326538 147.200043 553.6026 144.838013 560.145813 142.375458 C 559.440002 213.391541 558.739075 283.922058 558.037842 354.474976 C 551.877563 354.474976 545.602783 354.474976 539.168884 354.474976 C 539.168884 320.984131 539.168884 287.848297 539.169067 254.23703 z" stroke-linecap="round" />
</g>
<g transform="matrix(1 0 0 1 737.49 370.35)"  >
<path style="stroke: none; stroke-width: 1; stroke-dasharray: none; stroke-linecap: butt; stroke-dashoffset: 0; stroke-linejoin: miter; stroke-miterlimit: 4; fill: rgb(253,253,253); fill-opacity: 0; fill-rule: nonzero; opacity: 1;" vector-effect="non-scaling-stroke"  transform=" translate(-664.54, -244.81)" d="M 673.998535 249.000412 C 673.998535 284.154724 673.998535 318.808929 673.998535 353.730255 C 667.095398 353.730255 660.854858 353.730255 653.628601 353.730255 C 654.298828 281.194519 654.967346 208.839752 655.635864 136.484985 C 656.16571 136.286469 656.695496 136.087967 657.225342 135.889465 C 663.12616 145.143951 669.249146 154.269379 674.757446 163.751862 C 675.994995 165.882172 675.186401 169.261826 675.146729 172.063873 C 674.785828 197.542984 674.386597 223.021561 673.998535 249.000412 z" stroke-linecap="round" />
</g>
<g transform="matrix(1 0 0 1 391.63 366.69)"  >
<path style="stroke: none; stroke-width: 1; stroke-dasharray: none; stroke-linecap: butt; stroke-dashoffset: 0; stroke-linejoin: miter; stroke-miterlimit: 4; fill: rgb(252,252,252); fill-opacity: 0; fill-rule: nonzero; opacity: 1;" vector-effect="non-scaling-stroke"  transform=" translate(-318.69, -241.16)" d="M 327.49054 164.076782 C 326.742462 227.624863 325.99472 290.681183 325.242462 354.117249 C 320.70047 354.117249 315.653809 354.117249 309.450104 354.117249 C 310.066833 279.041382 310.682526 204.091797 311.306 128.19426 C 317.117706 131.144424 321.88443 133.361969 326.397003 136.012268 C 327.391449 136.596313 327.922852 138.715836 327.920044 140.126816 C 327.904572 147.946457 327.658173 155.765671 327.49054 164.076782 z" stroke-linecap="round" />
</g>
<g transform="matrix(1 0 0 1 659.76 365.58)"  >
<path style="stroke: none; stroke-width: 1; stroke-dasharray: none; stroke-linecap: butt; stroke-dashoffset: 0; stroke-linejoin: miter; stroke-miterlimit: 4; fill: rgb(253,253,253); fill-opacity: 0; fill-rule: nonzero; opacity: 1;" vector-effect="non-scaling-stroke"  transform=" translate(-586.81, -240.05)" d="M 578.842651 351.897522 C 578.949036 311.282867 578.859253 271.159332 579.232239 231.040131 C 579.529053 199.104401 580.360474 167.173203 581.103455 135.243484 C 581.136292 133.831757 582.322266 131.952591 583.537903 131.156723 C 586.982788 128.901245 590.722229 127.095451 594.778137 124.875923 C 594.042297 201.875809 593.30957 278.549316 592.577454 355.16095 C 588.964478 355.16095 585.311768 355.360992 581.706848 355.033905 C 580.681763 354.940918 579.795898 353.313995 578.842651 351.897522 z" stroke-linecap="round" />
</g>
<g transform="matrix(1 0 0 1 427.06 375.32)"  >
<path style="stroke: none; stroke-width: 1; stroke-dasharray: none; stroke-linecap: butt; stroke-dashoffset: 0; stroke-linejoin: miter; stroke-miterlimit: 4; fill: rgb(253,253,253); fill-opacity: 0; fill-rule: nonzero; opacity: 1;" vector-effect="non-scaling-stroke"  transform=" translate(-354.11, -249.77)" d="M 361.161865 319.000092 C 361.161865 330.96347 361.161865 342.426849 361.161865 354.188751 C 356.124268 354.188751 351.407196 354.188751 345.549713 354.188751 C 346.254425 284.697479 346.95755 215.362656 347.66748 145.356384 C 353.052795 147.209915 357.714203 148.814301 362.672546 150.520889 C 362.169525 206.45575 361.66568 262.477905 361.161865 319.000092 z" stroke-linecap="round" />
</g>
<g transform="matrix(1 0 0 1 774.93 406.56)"  >
<path style="stroke: none; stroke-width: 1; stroke-dasharray: none; stroke-linecap: butt; stroke-dashoffset: 0; stroke-linejoin: miter; stroke-miterlimit: 4; fill: rgb(252,252,252); fill-opacity: 0; fill-rule: nonzero; opacity: 1;" vector-effect="non-scaling-stroke"  transform=" translate(-701.98, -281.02)" d="M 692.99939 331 C 693.263489 290.034882 693.527588 249.569748 693.797791 208.162048 C 710.424133 225.76915 716.96698 323.092316 704.396179 353.883545 C 700.798523 353.883545 697.172668 353.883545 692.999451 353.883545 C 692.999451 346.352692 692.999451 338.926331 692.99939 331 z" stroke-linecap="round" />
</g>
<g transform="matrix(1 0 0 1 540 598.93)"  >
<path style="stroke: none; stroke-width: 1; stroke-dasharray: none; stroke-linecap: butt; stroke-dashoffset: 0; stroke-linejoin: miter; stroke-miterlimit: 4; fill: rgb(246,246,246); fill-opacity: 0; fill-rule: nonzero; opacity: 1;" vector-effect="non-scaling-stroke"  transform=" translate(-438.54, -554.83)" d="M 379.457764 556.637817 C 408.241333 563.278687 436.974823 566.029175 466.09433 565.015137 C 496.21051 563.96637 525.579102 558.814087 554.238831 549.544495 C 556.042603 548.961121 557.850098 548.389404 559.708069 548.678406 C 476.973389 586.287659 396.177979 582.006104 317.365753 536.934326 C 317.490448 536.473145 317.615173 536.011902 317.739868 535.550659 C 324.241791 538.165955 330.702576 540.890137 337.256958 543.366577 C 344.093201 545.949402 350.9552 548.499146 357.924866 550.684143 C 364.893829 552.868896 372.009888 554.584351 379.457764 556.637817 z" stroke-linecap="round" />
</g>
<g transform="matrix(1 0 0 1 266.73 415.46)"  >
<path style="stroke: none; stroke-width: 1; stroke-dasharray: none; stroke-linecap: butt; stroke-dashoffset: 0; stroke-linejoin: miter; stroke-miterlimit: 4; fill: rgb(244,244,244); fill-opacity: 0; fill-rule: nonzero; opacity: 1;" vector-effect="non-scaling-stroke"  transform=" translate(-193.78, -289.92)" d="M 198.854004 328.999939 C 198.854004 336.955902 198.854004 344.411865 198.854004 352.197052 C 196.794006 352.197052 195.056427 352.197052 192.985123 352.197052 C 185.905518 310.196838 187.423035 268.763092 198.854004 227.640854 C 198.854004 261.417236 198.854004 294.958588 198.854004 328.999939 z" stroke-linecap="round" />
</g>
<g transform="matrix(1 0 0 1 580.69 299.15)"  >
<path style="stroke: none; stroke-width: 1; stroke-dasharray: none; stroke-linecap: butt; stroke-dashoffset: 0; stroke-linejoin: miter; stroke-miterlimit: 4; fill: rgb(246,246,246); fill-opacity: 0; fill-rule: nonzero; opacity: 1;" vector-effect="non-scaling-stroke"  transform=" translate(-507.74, -173.61)" d="M 504.09906 159.118774 C 509.828552 157.946854 515.139099 156.838425 520.21637 155.778702 C 520.21637 168.005157 520.21637 179.898651 520.21637 191.441177 C 511.884033 181.243607 503.590118 171.093079 495.263428 160.90242 C 497.462524 160.452988 500.57135 159.817627 504.09906 159.118774 z" stroke-linecap="round" />
</g>
<g transform="matrix(1 0 0 1 467.32 297.32)"  >
<path style="stroke: none; stroke-width: 1; stroke-dasharray: none; stroke-linecap: butt; stroke-dashoffset: 0; stroke-linejoin: miter; stroke-miterlimit: 4; fill: rgb(251,251,251); fill-opacity: 0; fill-rule: nonzero; opacity: 1;" vector-effect="non-scaling-stroke"  transform=" translate(-394.38, -171.78)" d="M 390.022705 157.918091 C 395.63028 159.001663 400.809937 160.015472 405.550964 160.943436 C 398.055908 169.687424 390.557617 178.435196 383.206909 187.010773 C 383.206909 177.475784 383.206909 167.316071 383.206909 156.550781 C 385.532288 157.023132 387.563568 157.435745 390.022705 157.918091 z" stroke-linecap="round" />
</g>
<g transform="matrix(1 0 0 1 539.78 294.12)"  >
<path style="stroke: none; stroke-width: 1; stroke-dasharray: none; stroke-linecap: butt; stroke-dashoffset: 0; stroke-linejoin: miter; stroke-miterlimit: 4; fill: rgb(254,254,254); fill-rule: nonzero; opacity: 1;" vector-effect="non-scaling-stroke"  transform=" translate(-466.83, -168.59)" d="M 467.225769 168.155853 C 467.167603 168.406433 467.098236 168.71167 467.02887 169.016907 C 466.829041 168.95488 466.629181 168.892853 466.429352 168.830826 C 466.557373 168.726456 466.685394 168.62207 467.040771 168.322784 C 467.268097 168.127899 467.2146 168.210495 467.225769 168.155853 z" stroke-linecap="round" />
</g>
<g transform="matrix(1 0 0 1 279.47 525.11)"  >
<path style="stroke: none; stroke-width: 1; stroke-dasharray: none; stroke-linecap: butt; stroke-dashoffset: 0; stroke-linejoin: miter; stroke-miterlimit: 4; fill: rgb(252,252,252); fill-rule: nonzero; opacity: 1;" vector-effect="non-scaling-stroke"  transform=" translate(-206.52, -399.57)" d="M 206.30188 399.338623 C 206.605896 399.352844 206.671906 399.575897 206.737915 399.798981 C 206.513245 399.715149 206.288559 399.631348 206.30188 399.338623 z" stroke-linecap="round" />
</g>
<g transform="matrix(1 0 0 1 785.43 840.01)"  >
<path style="stroke: none; stroke-width: 1; stroke-dasharray: none; stroke-linecap: butt; stroke-dashoffset: 0; stroke-linejoin: miter; stroke-miterlimit: 4; fill: rgb(233,233,233); fill-opacity: 0; fill-rule: nonzero; opacity: 1;" vector-effect="non-scaling-stroke"  transform=" translate(-712.48, -714.47)" d="M 717.123413 746.151367 C 716.280334 753.546875 714.817932 754.834717 707.717896 754.545349 C 707.717896 727.870972 707.717896 701.183533 707.717896 674.512695 C 714.853577 673.832703 717.09668 675.303833 717.151062 681.911011 C 717.326111 703.180481 717.187622 724.452515 717.123413 746.151367 z" stroke-linecap="round" />
</g>
<g transform="matrix(1 0 0 1 570.79 863.69)"  >
<path style="stroke: none; stroke-width: 1; stroke-dasharray: none; stroke-linecap: butt; stroke-dashoffset: 0; stroke-linejoin: miter; stroke-miterlimit: 4; fill: rgb(233,233,233); fill-opacity: 0; fill-rule: nonzero; opacity: 1;" vector-effect="non-scaling-stroke"  transform=" translate(-497.84, -738.16)" d="M 497.24176 754.354614 C 495.575562 754.599792 494.299438 754.742432 492.702667 754.920959 C 492.702667 743.51593 492.702667 732.491577 492.702667 721.483215 C 500.704041 720.965515 502.68158 722.588074 502.858765 729.970215 C 502.990143 735.442749 503.053589 740.929077 502.80896 746.394165 C 502.653778 749.861694 502.304138 753.58551 497.24176 754.354614 z" stroke-linecap="round" />
</g>
<g transform="matrix(1 0 0 1 570.55 813.68)"  >
<path style="stroke: none; stroke-width: 1; stroke-dasharray: none; stroke-linecap: butt; stroke-dashoffset: 0; stroke-linejoin: miter; stroke-miterlimit: 4; fill: rgb(233,233,233); fill-opacity: 0; fill-rule: nonzero; opacity: 1;" vector-effect="non-scaling-stroke"  transform=" translate(-497.61, -688.14)" d="M 495.015259 701.88623 C 493.872437 701.213135 492.538452 700.551941 492.526855 699.868347 C 492.383636 691.434937 492.433472 682.998169 492.433472 674.62616 C 499.531311 673.698914 502.067017 675.282593 502.625885 681.615784 C 503.030975 686.205994 502.593353 690.874573 502.467346 695.50647 C 502.344116 700.036438 499.881348 702.073242 495.015259 701.88623 z" stroke-linecap="round" />
</g>
<g transform="matrix(1 0 0 1 203.62 840.13)"  >
<path style="stroke: none; stroke-width: 1; stroke-dasharray: none; stroke-linecap: butt; stroke-dashoffset: 0; stroke-linejoin: miter; stroke-miterlimit: 4; fill: rgb(244,244,244); fill-opacity: 0; fill-rule: nonzero; opacity: 1;" vector-effect="non-scaling-stroke"  transform=" translate(-130.67, -714.59)" d="M 126.58989 674.058472 C 128.57074 672.894165 130.57283 671.2547 132.13176 671.602295 C 133.393112 671.883545 134.883911 674.522827 134.958664 676.175537 C 135.371964 685.313965 135.510971 694.470642 135.502579 703.620911 C 135.488235 719.266663 135.310593 734.912415 135.151917 750.557678 C 135.136917 752.035461 135.213867 753.823608 134.450699 754.904724 C 133.53508 756.201904 131.748062 757.660889 130.367355 757.63269 C 129.008057 757.604797 127.236229 756.057983 126.473503 754.709351 C 125.72596 753.387573 125.883141 751.476013 125.880341 749.822876 C 125.840569 726.344238 125.829308 702.865479 125.857338 679.38678 C 125.859306 677.738281 126.223763 676.09021 126.58989 674.058472 z" stroke-linecap="round" />
</g>
<g transform="matrix(1 0 0 1 656.22 813.61)"  >
<path style="stroke: none; stroke-width: 1; stroke-dasharray: none; stroke-linecap: butt; stroke-dashoffset: 0; stroke-linejoin: miter; stroke-miterlimit: 4; fill: rgb(233,233,233); fill-opacity: 0; fill-rule: nonzero; opacity: 1;" vector-effect="non-scaling-stroke"  transform=" translate(-583.27, -688.07)" d="M 578.423279 689.975586 C 578.423279 684.508362 578.423279 679.533997 578.423279 674.606506 C 585.115479 673.955811 587.755737 675.977234 587.999817 681.864624 C 588.165283 685.855408 588.15387 689.864136 587.992737 693.855591 C 587.73468 700.25293 586.042114 701.680237 578.423279 701.649414 C 578.423279 697.945679 578.423279 694.20697 578.423279 689.975586 z" stroke-linecap="round" />
</g>
</svg>